<?xml version="1.0" encoding="UTF-8"?>
<svg xmlns="http://www.w3.org/2000/svg" xmlns:xlink="http://www.w3.org/1999/xlink" width="197px" height="150px" viewBox="0 0 196 150" version="1.1">
<g id="surface1">
<path style=" stroke:none;fill-rule:nonzero;fill:rgb(100%,100%,100%);fill-opacity:1;" d="M 54.019531 76.390625 L 54.816406 80.785156 C 54.839844 80.933594 54.777344 81.078125 54.660156 81.167969 C 54.539062 81.253906 54.378906 81.265625 54.25 81.195312 L 50.355469 79.039062 L 46.371094 81.152344 C 46.242188 81.222656 46.082031 81.210938 45.960938 81.125 C 45.84375 81.039062 45.785156 80.886719 45.8125 80.742188 L 46.65625 76.355469 L 43.417969 73.269531 C 43.3125 73.167969 43.269531 73.015625 43.316406 72.875 C 43.363281 72.734375 43.484375 72.628906 43.632812 72.613281 L 48.070312 72.050781 L 50.019531 68.03125 C 50.082031 67.894531 50.214844 67.808594 50.367188 67.808594 C 50.515625 67.808594 50.648438 67.894531 50.710938 68.03125 L 52.621094 72.066406 L 57.054688 72.671875 C 57.203125 72.691406 57.324219 72.792969 57.367188 72.933594 C 57.414062 73.074219 57.375 73.230469 57.265625 73.332031 Z M 50.355469 65.195312 C 47.765625 65.195312 45.285156 66.230469 43.453125 68.066406 C 41.625 69.90625 40.597656 72.398438 40.597656 75 C 40.597656 77.597656 41.625 80.09375 43.453125 81.929688 C 45.285156 83.769531 47.765625 84.800781 50.355469 84.800781 C 52.941406 84.800781 55.421875 83.769531 57.253906 81.929688 C 59.085938 80.09375 60.113281 77.597656 60.113281 75 C 60.113281 72.398438 59.082031 69.90625 57.253906 68.066406 C 55.421875 66.226562 52.941406 65.195312 50.355469 65.195312 Z M 50.355469 65.195312 "/>
<path style=" stroke:none;fill-rule:nonzero;fill:rgb(100%,100%,100%);fill-opacity:1;" d="M 77.839844 76.390625 L 78.636719 80.785156 C 78.664062 80.933594 78.601562 81.078125 78.480469 81.167969 C 78.359375 81.253906 78.203125 81.265625 78.070312 81.195312 L 74.175781 79.039062 L 70.195312 81.152344 C 70.066406 81.222656 69.90625 81.210938 69.785156 81.125 C 69.664062 81.039062 69.605469 80.886719 69.636719 80.742188 L 70.480469 76.355469 L 67.242188 73.269531 C 67.132812 73.167969 67.09375 73.015625 67.140625 72.875 C 67.1875 72.734375 67.308594 72.628906 67.457031 72.613281 L 71.890625 72.050781 L 73.84375 68.03125 C 73.90625 67.894531 74.039062 67.808594 74.1875 67.808594 C 74.339844 67.808594 74.472656 67.894531 74.535156 68.03125 L 76.441406 72.066406 L 80.878906 72.671875 C 81.023438 72.691406 81.148438 72.792969 81.191406 72.933594 C 81.234375 73.074219 81.199219 73.230469 81.089844 73.332031 L 77.84375 76.390625 Z M 74.175781 65.195312 C 71.589844 65.195312 69.109375 66.230469 67.277344 68.066406 C 65.445312 69.90625 64.417969 72.398438 64.417969 75 C 64.417969 77.597656 65.449219 80.09375 67.277344 81.929688 C 69.109375 83.769531 71.589844 84.800781 74.175781 84.800781 C 76.765625 84.800781 79.246094 83.769531 81.078125 81.929688 C 82.90625 80.09375 83.933594 77.597656 83.933594 75 C 83.933594 72.398438 82.90625 69.90625 81.078125 68.066406 C 79.246094 66.226562 76.765625 65.195312 74.175781 65.195312 Z M 74.175781 65.195312 "/>
<path style=" stroke:none;fill-rule:nonzero;fill:rgb(100%,100%,100%);fill-opacity:1;" d="M 101.664062 76.390625 L 102.460938 80.785156 C 102.484375 80.933594 102.425781 81.078125 102.304688 81.167969 C 102.183594 81.253906 102.023438 81.265625 101.894531 81.195312 L 98 79.039062 L 94.015625 81.152344 C 93.886719 81.222656 93.730469 81.210938 93.609375 81.125 C 93.488281 81.039062 93.429688 80.886719 93.457031 80.742188 L 94.300781 76.355469 L 91.0625 73.269531 C 90.957031 73.167969 90.917969 73.015625 90.960938 72.875 C 91.007812 72.734375 91.132812 72.628906 91.277344 72.613281 L 95.714844 72.050781 L 97.664062 68.03125 C 97.726562 67.894531 97.863281 67.808594 98.011719 67.808594 C 98.160156 67.808594 98.292969 67.894531 98.359375 68.03125 L 100.265625 72.066406 L 104.699219 72.671875 C 104.847656 72.691406 104.96875 72.792969 105.015625 72.933594 C 105.058594 73.074219 105.019531 73.230469 104.914062 73.332031 L 101.667969 76.390625 Z M 98 65.195312 C 95.410156 65.195312 92.929688 66.230469 91.101562 68.066406 C 89.269531 69.90625 88.242188 72.398438 88.242188 75 C 88.242188 77.597656 89.273438 80.09375 91.101562 81.929688 C 92.929688 83.769531 95.410156 84.800781 98 84.800781 C 100.589844 84.800781 103.070312 83.769531 104.898438 81.929688 C 106.730469 80.09375 107.757812 77.597656 107.757812 75 C 107.757812 72.398438 106.726562 69.90625 104.898438 68.066406 C 103.070312 66.226562 100.589844 65.195312 98 65.195312 Z M 98 65.195312 "/>
<path style=" stroke:none;fill-rule:nonzero;fill:rgb(100%,100%,100%);fill-opacity:1;" d="M 125.488281 76.390625 L 126.285156 80.785156 C 126.308594 80.933594 126.25 81.078125 126.128906 81.167969 C 126.007812 81.253906 125.847656 81.265625 125.71875 81.195312 L 121.824219 79.039062 L 117.84375 81.152344 C 117.710938 81.222656 117.554688 81.210938 117.433594 81.125 C 117.3125 81.039062 117.253906 80.886719 117.285156 80.742188 L 118.128906 76.355469 L 114.886719 73.269531 C 114.78125 73.167969 114.742188 73.015625 114.789062 72.875 C 114.832031 72.734375 114.957031 72.628906 115.101562 72.613281 L 119.539062 72.050781 L 121.488281 68.03125 C 121.554688 67.894531 121.6875 67.808594 121.835938 67.808594 C 121.984375 67.808594 122.121094 67.894531 122.183594 68.03125 L 124.089844 72.066406 L 128.527344 72.671875 C 128.671875 72.691406 128.796875 72.792969 128.839844 72.933594 C 128.882812 73.074219 128.84375 73.230469 128.738281 73.332031 L 125.492188 76.390625 Z M 121.824219 65.195312 C 119.238281 65.195312 116.753906 66.230469 114.925781 68.066406 C 113.09375 69.90625 112.066406 72.398438 112.066406 75 C 112.066406 77.597656 113.097656 80.09375 114.925781 81.929688 C 116.753906 83.769531 119.238281 84.800781 121.824219 84.800781 C 124.414062 84.800781 126.894531 83.769531 128.722656 81.929688 C 130.554688 80.09375 131.582031 77.597656 131.582031 75 C 131.582031 72.398438 130.554688 69.90625 128.722656 68.066406 C 126.894531 66.226562 124.414062 65.195312 121.824219 65.195312 Z M 121.824219 65.195312 "/>
<path style=" stroke:none;fill-rule:nonzero;fill:rgb(100%,100%,100%);fill-opacity:1;" d="M 149.3125 76.390625 L 150.109375 80.785156 C 150.132812 80.933594 150.070312 81.078125 149.953125 81.167969 C 149.832031 81.253906 149.671875 81.265625 149.542969 81.195312 L 145.648438 79.039062 L 141.664062 81.152344 C 141.535156 81.222656 141.375 81.210938 141.253906 81.125 C 141.136719 81.039062 141.078125 80.886719 141.105469 80.742188 L 141.949219 76.355469 L 138.710938 73.269531 C 138.605469 73.167969 138.5625 73.015625 138.609375 72.875 C 138.65625 72.734375 138.777344 72.628906 138.925781 72.613281 L 143.363281 72.050781 L 145.3125 68.03125 C 145.375 67.894531 145.507812 67.808594 145.660156 67.808594 C 145.808594 67.808594 145.941406 67.894531 146.003906 68.03125 L 147.914062 72.066406 L 152.347656 72.671875 C 152.496094 72.691406 152.617188 72.792969 152.660156 72.933594 C 152.707031 73.074219 152.667969 73.230469 152.558594 73.332031 Z M 145.648438 65.195312 C 143.058594 65.195312 140.578125 66.230469 138.746094 68.066406 C 136.917969 69.90625 135.890625 72.398438 135.890625 75 C 135.890625 77.597656 136.917969 80.09375 138.746094 81.929688 C 140.578125 83.769531 143.058594 84.800781 145.648438 84.800781 C 148.234375 84.800781 150.714844 83.769531 152.546875 81.929688 C 154.378906 80.09375 155.40625 77.597656 155.40625 75 C 155.40625 72.398438 154.375 69.90625 152.546875 68.066406 C 150.714844 66.226562 148.234375 65.195312 145.648438 65.195312 Z M 145.648438 65.195312 "/>
</g>
</svg>
